<svg width="8" height="16" viewBox="0 0 8 16" fill="none" xmlns="http://www.w3.org/2000/svg">
<path d="M4.53422 0.916954C4.33896 0.721692 4.02237 0.721692 3.82711 0.916954L0.64513 4.09893C0.449868 4.2942 0.449868 4.61078 0.64513 4.80604C0.840392 5.0013 1.15697 5.0013 1.35224 4.80604L4.18066 1.97761L7.00909 4.80604C7.20435 5.0013 7.52094 5.0013 7.7162 4.80604C7.91146 4.61078 7.91146 4.2942 7.7162 4.09894L4.53422 0.916954ZM3.82711 14.8709C4.02237 15.0662 4.33895 15.0662 4.53422 14.8709L7.7162 11.689C7.91146 11.4937 7.91146 11.1771 7.7162 10.9819C7.52094 10.7866 7.20435 10.7866 7.00909 10.9819L4.18066 13.8103L1.35224 10.9819C1.15697 10.7866 0.840392 10.7866 0.64513 10.9819C0.449868 11.1771 0.449868 11.4937 0.64513 11.689L3.82711 14.8709ZM3.68066 1.27051L3.68066 14.5174L4.68066 14.5174L4.68066 1.27051L3.68066 1.27051Z" fill="#EF9C21"/>
</svg>
