<svg width="49" height="39" viewBox="0 0 49 39" fill="none" xmlns="http://www.w3.org/2000/svg">
<path d="M45.2216 3.37259C44.0244 2.30323 42.6028 1.45493 41.0382 0.876167C39.4735 0.297403 37.7965 -0.000488281 36.1029 -0.000488281C34.4093 -0.000488281 32.7323 0.297403 31.1676 0.876167C29.603 1.45493 28.1815 2.30323 26.9842 3.37259L24.4994 5.59086L22.0146 3.37259C19.5961 1.21356 16.316 0.000630819 12.8958 0.000630842C9.47565 0.000630865 6.19554 1.21356 3.7771 3.37259C1.35867 5.53162 2.54824e-08 8.45989 0 11.5132C-2.54824e-08 14.5666 1.35867 17.4948 3.7771 19.6539L6.2619 21.8721L24.4994 38.1534L42.7368 21.8721L45.2216 19.6539C46.4195 18.585 47.3697 17.3159 48.018 15.9191C48.6663 14.5223 49 13.0252 49 11.5132C49 10.0013 48.6663 8.50413 48.018 7.10733C47.3697 5.71053 46.4195 4.44145 45.2216 3.37259Z" fill="#EF9C21"/>
</svg>
